<svg xmlns="http://www.w3.org/2000/svg" xmlns:xlink="http://www.w3.org/1999/xlink" width="1080" height="1080" viewBox="0 0 1080 1080">
  <defs>
    <clipPath id="clip-Web_1920_6">
      <rect width="1080" height="1080"/>
    </clipPath>
  </defs>
  <g id="Web_1920_6" data-name="Web 1920 – 6" clip-path="url(#clip-Web_1920_6)">
    <rect width="1080" height="1080" fill="#fff"/>
    <g id="Rectángulo_15" data-name="Rectángulo 15" transform="translate(548 187)" fill="#1493fc" stroke="#1997ff" stroke-linecap="round" stroke-width="1">
      <rect width="400" height="398" stroke="none"/>
      <rect x="0.5" y="0.5" width="399" height="397" fill="none"/>
    </g>
    <g id="Rectángulo_14" data-name="Rectángulo 14" transform="translate(133 77)" fill="#ff9a00" stroke="#ff9a00" stroke-linecap="round" stroke-width="1">
      <rect width="400" height="400" stroke="none"/>
      <rect x="0.5" y="0.5" width="399" height="399" fill="none"/>
    </g>
    <g id="Rectángulo_16" data-name="Rectángulo 16" transform="translate(133 495)" fill="#1493fc" stroke="#1997ff" stroke-linecap="round" stroke-width="1">
      <rect width="400" height="398" stroke="none"/>
      <rect x="0.5" y="0.5" width="399" height="397" fill="none"/>
    </g>
    <g id="Rectángulo_17" data-name="Rectángulo 17" transform="translate(547 603)" fill="#ff9a00" stroke="#ff9a00" stroke-linecap="round" stroke-width="1">
      <rect width="400" height="400" stroke="none"/>
      <rect x="0.5" y="0.5" width="399" height="399" fill="none"/>
    </g>
    <path id="university-solid" d="M266.16,71.043v6c0,1.775-1.7,3-4,3h-13v5c0,2.663-2.548,5-6,5h-204c-3.452,0-6-2.337-6-5v-5h-13c-2.3,0-4-1.225-4-3v-6a2.812,2.812,0,0,1,2-3l121-36a4.726,4.726,0,0,1,3,0l121,36C264.718,68.54,266.16,69.743,266.16,71.043Zm-13,122h-225c-6.9,0-12,3.674-12,9v7c0,1.775,1.7,3,4,3h242c2.3,0,4-1.225,4-3v-7C266.16,196.717,260.064,193.043,253.16,193.043Zm-195-97v77h-19c-3.452,0-6,2.337-6,5v8h216v-8c0-2.663-2.548-5-6-5h-19v-77h-33v77h-33v-77h-34v77h-33v-77Z" transform="translate(191.84 571.957)" fill="#fff"/>
    <path id="mountain-solid" d="M248,163.114l-112-158c-2.3-3.22-6.746-5-11-5s-8.7,1.78-11,5l-112,158c-2.473,3.462-2.191,7.388,0,11s5.428,6,10,6H237a12.936,12.936,0,0,0,11-6C250.194,170.5,250.475,166.575,248,163.114Zm-123-131,33,47H125l-25,22-15-13Z" transform="translate(207.998 186.886)" fill="#fff"/>
    <path id="graduation-cap-solid" d="M243.006,106.042l-109-40a25.489,25.489,0,0,0-18,0l-109,40c-9.2,3.389-9.2,17.611,0,21l19,7a41.546,41.546,0,0,0-7,22,16.231,16.231,0,0,0-7,13c0,5.053,2.8,9.281,6,12l-10,54c-.867,4.683,2,9,6,9h22c4,0,6.867-4.317,6-9l-10-54c3.2-2.719,5-6.947,5-12,0-5.423-2.41-10.366-6-13a22.861,22.861,0,0,1,8-17l77,28a25.5,25.5,0,0,0,18,0l109-40C252.206,123.648,252.206,109.436,243.006,106.042Zm-105,76a37.9,37.9,0,0,1-26,0l-56-21-6,53c0,16.57,33.578,30,75,30s75-13.43,75-30l-6-53Z" transform="translate(621.994 231.958)" fill="#fff"/>
    <path id="chalkboard-teacher-solid" d="M81,124a11.579,11.579,0,0,0-3,0c-5.062,1.48-9.395,3-15,3s-10.934-1.52-16-3a11.579,11.579,0,0,0-3,0C19.756,124-.13,141.154,0,163c.055,9.232,8.738,17,19,17h87c10.262,0,18.945-7.768,19-17C125.127,141.154,105.241,124,81,124ZM63,113c20.711,0,37-15.36,37-34S83.709,45,63,45,25,60.36,25,79,42.288,113,63,113ZM231,0H81C70.659,0,63,7.388,63,17V34a53.475,53.475,0,0,1,25,6V23H225V124H200V101H150v23H120c7.461,5.868,13.434,13.116,16,22h95c10.34,0,19-7.388,19-17V17C250,7.388,241.338,0,231,0Z" transform="translate(623.001 713)" fill="#fff"/>
  </g>
</svg>
